<svg xmlns="http://www.w3.org/2000/svg" width="692" height="198" viewBox="0 0 692 198" fill="none"><g clip-path="url(#clip0)"><path d="M140.57 5.04004C132.76 5.04004 126.04 9.51004 122.75 16.03L95.97 67.77C92.98 62.45 88.21 58.27 82.46 56.02C88.89 51.38 93.07 43.81 93.07 35.26C93.07 25.36 87.45 16.79 79.22 12.54C71.98 8.73004 63.71 6.58004 54.95 6.58004H14.89C6.65 6.58004 0 13.25 0 21.47V96.02C0 104.23 6.65 110.9 14.89 110.9H29.36H58.21C66.56 110.9 74.51 109.17 81.72 106.09L84.47 104.76C84.63 104.68 84.77 104.61 84.92 104.53C87.52 108.84 92.24 111.75 97.66 111.75C103.68 111.75 108.88 108.17 111.22 103.01C112.39 100.28 115.01 98.36 118.13 98.21H163.01C166.12 98.36 168.75 100.29 169.92 103.01C172.25 108.17 177.45 111.75 183.48 111.75C191.71 111.75 198.36 105.08 198.36 96.88C198.36 94.21 197.67 91.71 196.43 89.56L158.38 16.05C155.1 9.52004 148.37 5.06004 140.57 5.06004V5.04004Z" fill="white"/><path d="M245.65 25.4299V49.0599H277.44C282.52 49.0599 286.64 53.1799 286.64 58.2599C286.64 63.4199 282.45 67.6099 277.29 67.6099H245.65V90.0499H282.75C288.29 90.0499 292.77 94.5399 292.77 100.07C292.77 105.6 288.28 110.09 282.75 110.09H229.2C225.15 110.09 221.87 106.81 221.87 102.76V12.5599C221.87 8.58988 225.08 5.37988 229.05 5.37988H282.75C288.28 5.37988 292.77 9.86988 292.77 15.3999C292.77 20.9299 288.28 25.4199 282.75 25.4199H245.65V25.4299Z" fill="white"/><path d="M368.32 71.6501C368.32 49.5101 386.57 31.5601 410.95 31.5601C435.33 31.5601 453.58 49.5101 453.58 71.6501C453.58 93.7901 435.33 111.74 410.95 111.74C386.57 111.74 368.32 93.9301 368.32 71.6501ZM431.59 71.8001C431.59 59.6801 422.47 50.4101 410.95 50.4101C399.28 50.4101 390.31 59.6801 390.31 71.8001C390.31 83.7701 399.28 93.0401 410.95 93.0401C422.47 93.0401 431.59 83.7601 431.59 71.8001Z" fill="white"/><path d="M484.4 99.3199C484.4 105.27 479.58 110.09 473.63 110.09H471.98C466.03 110.09 461.21 105.27 461.21 99.3199V13.4599C461.21 7.09994 466.37 1.93994 472.73 1.93994C479.17 1.93994 484.4 7.15994 484.4 13.6099V44.1199C489.93 35.4399 498.91 31.5599 508.93 31.5599C530.62 31.5599 546.03 49.0599 546.03 71.6499C546.03 94.3899 530.62 111.74 508.93 111.74C498.91 111.74 489.93 107.85 484.4 99.3199ZM522.84 71.6499C522.84 59.8299 515.66 50.1099 503.69 50.1099C491.72 50.1099 484.09 59.3799 483.95 71.6499C484.1 83.9099 491.73 93.1899 503.69 93.1899C515.66 93.1899 522.84 83.6099 522.84 71.6499Z" fill="white"/><path d="M551.86 12.12C551.86 5.23 556.8 0 565.78 0C574.61 0 579.69 5.23 579.69 12.12C579.69 18.85 574.31 24.09 565.78 24.09C557.25 24.09 551.86 18.85 551.86 12.12ZM554.26 98.57V44.72C554.26 38.36 559.42 33.2 565.78 33.2C572.22 33.2 577.45 38.42 577.45 44.87V98.57C577.45 104.93 572.29 110.09 565.93 110.09H565.78C559.41 110.09 554.26 104.93 554.26 98.57Z" fill="white"/><path d="M663.91 12.12C663.91 5.24 668.85 0 677.82 0C686.65 0 691.73 5.23 691.73 12.12C691.73 18.85 686.35 24.09 677.82 24.09C669.29 24.09 663.91 18.85 663.91 12.12ZM666.3 98.57V44.72C666.3 38.36 671.46 33.2 677.82 33.2C684.26 33.2 689.49 38.42 689.49 44.87V98.57C689.49 104.93 684.33 110.09 677.97 110.09H677.82C671.46 110.09 666.3 104.93 666.3 98.57Z" fill="white"/><path d="M334.4 111.74C312.3 111.74 294.31 93.7601 294.31 71.6501C294.31 49.5401 312.29 31.5601 334.4 31.5601C344.21 31.5601 353.66 35.1401 360.99 41.6501C364.78 45.0101 365.13 50.8101 361.77 54.6001C358.41 58.3901 352.6 58.7401 348.82 55.3801C344.85 51.8601 339.73 49.9201 334.41 49.9201C322.42 49.9201 312.67 59.6701 312.67 71.6601C312.67 83.6501 322.42 93.4001 334.41 93.4001C339.69 93.4001 344.79 91.4801 348.75 88.0001C352.56 84.6601 358.36 85.0301 361.7 88.8301C365.05 92.6401 364.67 98.4401 360.87 101.78C353.54 108.2 344.15 111.74 334.4 111.74Z" fill="white"/><path d="M627.42 111.73C605.32 111.73 587.33 93.75 587.33 71.64C587.33 49.53 605.31 31.55 627.42 31.55C637.23 31.55 646.68 35.13 654.01 41.64C657.8 45 658.15 50.8 654.79 54.59C651.43 58.38 645.62 58.73 641.84 55.37C637.87 51.85 632.75 49.91 627.43 49.91C615.44 49.91 605.69 59.6601 605.69 71.6501C605.69 83.6401 615.44 93.39 627.43 93.39C632.71 93.39 637.81 91.47 641.77 87.99C645.58 84.65 651.38 85.02 654.72 88.82C658.07 92.63 657.69 98.4301 653.89 101.77C646.56 108.2 637.16 111.73 627.42 111.73Z" fill="white"/><path d="M320.68 145.52C320.68 151.53 317.08 155.71 311.89 155.71C309.22 155.71 307.14 154.67 305.77 152.83V162.37H301.74V136.08H304.84L305.27 139C306.64 136.8 308.94 135.51 311.9 135.51C317.08 135.51 320.68 139.62 320.68 145.52ZM316.5 145.52C316.5 141.81 314.38 139.11 311.35 139.11C308.07 139.11 305.77 141.67 305.77 145.38C305.77 149.34 308.07 152.08 311.35 152.08C314.38 152.08 316.5 149.3 316.5 145.52Z" fill="white"/><path d="M323.27 145.45C323.27 139.58 327.23 135.51 332.92 135.51C338.65 135.51 342.61 139.58 342.61 145.45C342.61 151.5 338.65 155.71 332.92 155.71C327.23 155.71 323.27 151.5 323.27 145.45ZM338.57 145.45C338.57 141.7 336.27 139.11 332.92 139.11C329.64 139.11 327.34 141.7 327.34 145.45C327.34 149.37 329.64 152.11 332.92 152.11C336.27 152.11 338.57 149.37 338.57 145.45Z" fill="white"/><path d="M357.04 135.91V139.73H356.32C352.29 139.73 350.2 141.75 350.2 145.53V155.18H346.13V136.09H349.23L349.81 139.91C351 137.28 353.16 135.91 356.33 135.91H357.04Z" fill="white"/> --&gt;<path d="M378.76 148.34C379.57 148.34 380.36 148.05 380.97 147.52C383.17 145.63 385.66 144.16 388.34 143.15C391.12 142.1 394.04 141.57 397.04 141.57H397.13C400.34 141.57 404.53 142.77 407.14 143.81C414.93 146.83 426.75 150.84 439.34 150.86C440.27 150.86 441.21 150.84 442.13 150.79C444 150.7 445.45 149.1 445.36 147.23C445.27 145.35 443.68 143.89 441.8 143.99C440.97 144.03 440.15 144.06 439.34 144.06H439.29C430.67 144.06 420.96 141.9 409.6 137.47C404.98 135.7 400.75 134.79 397.03 134.77C389.52 134.77 382.25 137.47 376.54 142.36C375.85 142.95 375.43 143.78 375.36 144.68C375.29 145.59 375.58 146.47 376.17 147.15C376.82 147.9 377.77 148.34 378.76 148.34Z" fill="white"/><path d="M453.65 149.48H453.75C455.58 149.45 457.07 147.95 457.09 146.11C457.1 145.2 456.75 144.34 456.11 143.69C455.47 143.04 454.62 142.68 453.71 142.67H453.69C451.83 142.67 450.31 144.19 450.29 146.04C450.28 146.95 450.63 147.81 451.27 148.46C451.89 149.11 452.74 149.47 453.65 149.48Z" fill="white"/><path d="M474.29 155.04C472.38 151.56 469.64 148.59 466.33 146.45C465.78 146.09 465.14 145.9 464.49 145.9C463.33 145.9 462.26 146.48 461.63 147.45C460.61 149.02 461.06 151.13 462.63 152.15C467.54 155.34 470.47 160.8 470.47 166.75V166.87C470.42 171.48 468.68 175.75 465.56 178.92C462.43 182.09 458.21 183.84 453.68 183.85H453.62C452.3 183.85 450.59 183.68 449.55 183.44L449.53 183.43C446.65 182.81 443.61 182.42 440.52 182.3C438.63 182.22 437.06 183.68 436.99 185.56C436.91 187.44 438.38 189.02 440.25 189.09C442.95 189.2 445.58 189.53 448.08 190.07C449.74 190.43 451.73 190.64 453.69 190.64L453.72 190.6V190.64C460.05 190.64 465.99 188.17 470.41 183.68C474.81 179.21 477.25 173.26 477.28 166.9V166.74C477.28 162.66 476.25 158.61 474.29 155.04Z" fill="white"/><path d="M417.12 185.6C416.8 185.6 416.47 185.65 416.16 185.75C413.24 186.61 410.28 187.61 406.83 188.91C404.17 189.93 400.22 191.01 397.12 191.01H397.04C390.38 191.01 384.12 188.53 379.43 184.02C374.73 179.5 372.14 173.42 372.14 166.9C372.14 166.52 372.15 166.14 372.16 165.74C372.24 163.86 370.78 162.27 368.91 162.19C367.01 162.1 365.44 163.57 365.36 165.44C365.34 165.94 365.33 166.42 365.33 166.89C365.33 171.13 366.18 175.24 367.85 179.09C369.47 182.79 371.78 186.1 374.71 188.91C377.62 191.71 381.01 193.91 384.8 195.43C388.68 197 392.8 197.8 397.04 197.8C400.63 197.78 404.73 196.93 409.23 195.27C412.52 194.03 415.33 193.08 418.09 192.27C419.88 191.74 420.92 189.84 420.38 188.04C419.96 186.61 418.62 185.6 417.12 185.6Z" fill="white"/><path d="M428.12 183.04C427.22 183.18 426.43 183.65 425.89 184.38C425.35 185.12 425.13 186.01 425.27 186.91C425.52 188.56 426.96 189.8 428.62 189.8C428.79 189.8 428.96 189.78 429.14 189.76C430.99 189.48 432.27 187.74 431.99 185.88C431.71 184.08 429.94 182.76 428.12 183.04Z" fill="white"/><path d="M370.14 157.28C370.61 157.51 371.1 157.62 371.62 157.62C372.91 157.62 374.12 156.87 374.68 155.69C375.07 154.87 375.13 153.95 374.83 153.09C374.53 152.24 373.92 151.54 373.1 151.15C372.63 150.93 372.13 150.81 371.63 150.81C370.33 150.81 369.12 151.56 368.56 152.73L368.53 152.79C368.16 153.59 368.12 154.49 368.41 155.33C368.7 156.2 369.32 156.89 370.14 157.28Z" fill="white"/><path d="M453.68 176.79C459.14 176.79 463.58 172.35 463.58 166.89C463.58 161.43 459.14 156.99 453.68 156.99C448.22 156.99 443.78 161.43 443.78 166.89C443.78 172.35 448.22 176.79 453.68 176.79ZM449.82 166.89C449.82 164.76 451.55 163.02 453.69 163.02C455.82 163.02 457.56 164.75 457.56 166.89C457.56 169.02 455.83 170.76 453.69 170.76C451.55 170.76 449.82 169.03 449.82 166.89Z" fill="white"/><path d="M380.6 166.89C380.6 175.96 387.98 183.34 397.05 183.34C406.12 183.34 413.5 175.96 413.5 166.89C413.5 157.82 406.12 150.44 397.05 150.44C387.97 150.45 380.6 157.83 380.6 166.89ZM406.04 166.89C406.04 171.85 402 175.89 397.04 175.89C392.08 175.89 388.04 171.85 388.04 166.89C388.04 161.93 392.08 157.89 397.04 157.89C402 157.9 406.04 161.93 406.04 166.89Z" fill="white"/><path d="M676.42 168.2C677.1 168.2 677.63 168.78 677.58 169.46C677.12 175.29 673.51 180.33 668.14 182.52C660.28 185.72 651.22 181.76 647.94 173.7C644.66 165.64 648.37 156.47 656.23 153.27C661.6 151.08 667.7 152.17 672.1 156.02C672.61 156.47 672.64 157.26 672.15 157.73L669.07 160.75C668.64 161.17 667.98 161.19 667.51 160.81C665.01 158.77 661.66 158.2 658.72 159.4C654.25 161.22 652.16 166.52 654.06 171.2C655.97 175.88 661.16 178.21 665.63 176.39C668.57 175.19 670.57 172.45 670.94 169.24C671.01 168.65 671.5 168.2 672.1 168.2H676.42Z" fill="white"/><path d="M505.07 176.48C503.91 176.48 502.97 175.54 502.97 174.38V158.52H508.93C509.57 158.52 510.09 158 510.09 157.36V153.45C510.09 152.81 509.57 152.29 508.93 152.29H502.97V145.33C502.97 144.7 502.46 144.2 501.84 144.2H497.75C497.12 144.2 496.62 144.71 496.62 145.33V148.8C496.62 150.73 495.06 152.29 493.13 152.29H491.73C491.09 152.29 490.57 152.81 490.57 153.45V157.36C490.57 158 491.09 158.52 491.73 158.52H496.01V176.41C496.01 180.29 499.16 183.44 503.04 183.44H508.93C509.57 183.44 510.09 182.92 510.09 182.28V177.65C510.09 177.01 509.57 176.49 508.93 176.49H505.07V176.48Z" fill="white"/><path d="M681.53 180.2V155.53C681.53 153.61 683.09 152.05 685.01 152.05C686.93 152.05 688.49 153.61 688.49 155.53V180.2C688.49 182.12 686.93 183.68 685.01 183.68C683.09 183.68 681.53 182.12 681.53 180.2Z" fill="white"/><path d="M685.01 148.52C687.07 148.52 688.74 146.85 688.74 144.79C688.74 142.73 687.07 141.06 685.01 141.06C682.95 141.06 681.28 142.73 681.28 144.79C681.28 146.85 682.95 148.52 685.01 148.52Z" fill="white"/><path d="M635.19 180.2V155.53C635.19 153.61 636.75 152.05 638.67 152.05C640.59 152.05 642.15 153.61 642.15 155.53V180.2C642.15 182.12 640.59 183.68 638.67 183.68C636.75 183.68 635.19 182.12 635.19 180.2Z" fill="white"/><path d="M638.67 148.52C640.73 148.52 642.4 146.85 642.4 144.79C642.4 142.73 640.73 141.06 638.67 141.06C636.61 141.06 634.94 142.73 634.94 144.79C634.94 146.85 636.61 148.52 638.67 148.52Z" fill="white"/><path d="M615.68 152.05C612.45 152.05 609.42 153.09 606.9 154.86V142.46C606.9 141.82 606.38 141.3 605.74 141.3H601.11C600.47 141.3 599.95 141.82 599.95 142.46V182.28C599.95 182.92 600.47 183.44 601.11 183.44H605.74C606.38 183.44 606.9 182.92 606.9 182.28V180.88C609.41 182.65 612.44 183.69 615.68 183.69C624.13 183.69 630.98 176.61 630.98 167.88C630.98 159.15 624.13 152.05 615.68 152.05ZM615.68 176.9C610.93 176.9 606.91 172.76 606.91 167.86C606.91 162.96 610.92 158.82 615.68 158.82C620.38 158.82 624.2 162.88 624.2 167.86C624.2 172.84 620.38 176.9 615.68 176.9Z" fill="white"/><path d="M534.92 174.14C534.62 174.43 533.96 174.98 533.6 175.28C532.97 175.79 530.95 177 528.78 177C525.34 177 522.31 175.07 520.8 172.08C521.1 172.06 540.43 166.24 540.43 166.24C542.22 165.69 543.31 164.05 542.92 162.52C542.37 160.59 541.33 158.92 540.39 157.77L540.38 157.76C540.11 157.43 539.83 157.12 539.54 156.81C539.53 156.8 539.52 156.79 539.51 156.77C537.12 154.26 533.96 152.63 530.51 152.17C523.04 151.34 515.7 156.2 513.66 163.84C513.65 163.88 513.44 164.82 513.39 165.07C513.39 165.08 513.38 165.1 513.38 165.11C513.38 165.12 513.38 165.12 513.38 165.13C511.85 173.17 516.61 181.12 524.44 183.2C524.73 183.28 525.02 183.34 525.3 183.4C525.61 183.46 525.93 183.52 526.25 183.56C526.35 183.57 526.45 183.58 526.54 183.59C527.84 183.73 529.14 183.68 530.43 183.48C530.55 183.47 530.66 183.46 530.78 183.44C530.88 183.43 530.97 183.41 531.07 183.39C531.09 183.39 531.11 183.38 531.13 183.38C531.21 183.36 531.29 183.34 531.37 183.32C534.91 182.6 538.13 180.63 540.43 177.75C540.88 177.19 540.71 176.36 540.09 176.01L536.34 173.9C535.88 173.65 535.31 173.77 534.92 174.14ZM519.9 166.33C519.9 166.3 519.98 165.89 520.03 165.71C521.33 160.82 526.18 157.85 530.85 159.09C532.51 159.53 533.95 160.46 535.05 161.72C535.05 161.72 519.94 166.32 519.9 166.33Z" fill="white"/><path d="M547.71 182.27V153.45C547.71 152.81 548.23 152.29 548.87 152.29H553.54C554.18 152.29 554.7 152.81 554.7 153.45V156.83C556.46 153.74 560.31 152.04 563.78 152.04C567.81 152.04 571.28 153.87 572.98 157.46C575.44 153.43 578.91 152.04 582.94 152.04C588.49 152.04 593.78 155.63 593.78 163.7V182.27C593.78 182.91 593.26 183.43 592.62 183.43H587.89C587.25 183.43 586.73 182.91 586.73 182.27V164.9C586.73 161.31 584.9 158.6 580.8 158.6C576.95 158.6 574.43 161.63 574.43 165.41V182.27C574.43 182.91 573.91 183.43 573.27 183.43H568.41C567.77 183.43 567.25 182.91 567.25 182.27V164.9C567.25 161.38 565.55 158.61 561.35 158.6C557.83 158.59 554.96 161.54 554.96 165.06V182.27C554.96 182.91 554.44 183.43 553.8 183.43H548.88C548.23 183.44 547.71 182.92 547.71 182.27Z" fill="white"/></g><defs><clipPath id="clip0"><rect width="691.73" height="197.8" fill=""/></clipPath></defs></svg>